<svg xmlns="http://www.w3.org/2000/svg" viewBox="0 0 800 1270" width="800" height="1270">
  <defs>
    <style>
      .bg      { fill: #1e1e2e; }
      .bar-bg  { fill: #181825; }
      .border  { fill: none; stroke: #45475a; stroke-width: 1; }
      .bt      { font-family: 'JetBrains Mono','Fira Code',monospace; font-size: 11px; fill: #6c7086; }
      .t       { font-family: 'JetBrains Mono','Fira Code',monospace; font-size: 12.5px; }
      .ts      { font-family: 'JetBrains Mono','Fira Code',monospace; font-size: 11.5px; }
      .scanline{ fill: none; stroke: #cdd6f4; stroke-width: 0.35; opacity: 0.022; }
      .div     { stroke: #313244; stroke-width: 1; }
      .pill    { font-family: 'JetBrains Mono','Fira Code',monospace; font-size: 11px; }

      .c-text  { fill: #cdd6f4; }
      .c-sub   { fill: #585b70; }
      .c-sub2  { fill: #6c7086; }
      .c-grn   { fill: #a6e3a1; }
      .c-blue  { fill: #89b4fa; }
      .c-lav   { fill: #b4befe; }
      .c-peach { fill: #fab387; }
      .c-yel   { fill: #f9e2af; }
      .c-teal  { fill: #94e2d5; }
      .c-mauve { fill: #cba6f7; }
      .c-pink  { fill: #f5c2e7; }
      .c-red   { fill: #f38ba8; }

      .s0  { opacity:0; animation: fi 0.05s 0.1s  forwards; }
      .s1  { opacity:0; animation: fi 0.05s 0.4s  forwards; }
      .s2  { opacity:0; animation: fi 0.05s 0.9s  forwards; }
      .s3  { opacity:0; animation: fi 0.05s 1.3s  forwards; }
      .s4  { opacity:0; animation: fi 0.05s 1.7s  forwards; }
      .s5  { opacity:0; animation: fi 0.05s 2.1s  forwards; }
      .s6  { opacity:0; animation: fi 0.05s 2.5s  forwards; }
      .s7  { opacity:0; animation: fi 0.05s 2.9s  forwards; }
      .s8  { opacity:0; animation: fi 0.05s 3.3s  forwards; }
      .s9  { opacity:0; animation: fi 0.05s 3.7s  forwards; }
      .s10 { opacity:0; animation: fi 0.05s 4.1s  forwards; }
      .s11 { opacity:0; animation: fi 0.05s 4.5s  forwards; }
      .s12 { opacity:0; animation: fi 0.05s 4.8s  forwards; }
      .s13 { opacity:0; animation: fi 0.05s 5.1s  forwards; }
      .s14 { opacity:0; animation: fi 0.05s 5.4s  forwards; }
      .cur { opacity:0; animation: bl  0.9s  5.6s  step-end infinite; }

      @keyframes fi { to { opacity:1; } }
      @keyframes bl { 0%,100%{opacity:1} 50%{opacity:0} }

      .dot-r { fill: #f38ba8; }
      .dot-y { fill: #f9e2af; }
      .dot-g { fill: #a6e3a1; }
    </style>
    <clipPath id="clip"><rect x="0" y="0" width="800" height="1270" rx="12"/></clipPath>
  </defs>

  <rect class="bg" x="0" y="0" width="800" height="1270" rx="12"/>

  <g clip-path="url(#clip)">
    <line class="scanline" x1="0" y1="44"  x2="800" y2="44"/>
    <line class="scanline" x1="0" y1="60"  x2="800" y2="60"/>
    <line class="scanline" x1="0" y1="76"  x2="800" y2="76"/>
    <line class="scanline" x1="0" y1="92"  x2="800" y2="92"/>
    <line class="scanline" x1="0" y1="108" x2="800" y2="108"/>
    <line class="scanline" x1="0" y1="124" x2="800" y2="124"/>
    <line class="scanline" x1="0" y1="140" x2="800" y2="140"/>
    <line class="scanline" x1="0" y1="156" x2="800" y2="156"/>
    <line class="scanline" x1="0" y1="172" x2="800" y2="172"/>
    <line class="scanline" x1="0" y1="188" x2="800" y2="188"/>
    <line class="scanline" x1="0" y1="204" x2="800" y2="204"/>
    <line class="scanline" x1="0" y1="220" x2="800" y2="220"/>
    <line class="scanline" x1="0" y1="236" x2="800" y2="236"/>
    <line class="scanline" x1="0" y1="252" x2="800" y2="252"/>
    <line class="scanline" x1="0" y1="268" x2="800" y2="268"/>
    <line class="scanline" x1="0" y1="284" x2="800" y2="284"/>
    <line class="scanline" x1="0" y1="300" x2="800" y2="300"/>
    <line class="scanline" x1="0" y1="316" x2="800" y2="316"/>
    <line class="scanline" x1="0" y1="332" x2="800" y2="332"/>
    <line class="scanline" x1="0" y1="348" x2="800" y2="348"/>
    <line class="scanline" x1="0" y1="364" x2="800" y2="364"/>
    <line class="scanline" x1="0" y1="380" x2="800" y2="380"/>
    <line class="scanline" x1="0" y1="396" x2="800" y2="396"/>
    <line class="scanline" x1="0" y1="412" x2="800" y2="412"/>
    <line class="scanline" x1="0" y1="428" x2="800" y2="428"/>
    <line class="scanline" x1="0" y1="444" x2="800" y2="444"/>
    <line class="scanline" x1="0" y1="460" x2="800" y2="460"/>
    <line class="scanline" x1="0" y1="476" x2="800" y2="476"/>
    <line class="scanline" x1="0" y1="492" x2="800" y2="492"/>
    <line class="scanline" x1="0" y1="508" x2="800" y2="508"/>
    <line class="scanline" x1="0" y1="524" x2="800" y2="524"/>
    <line class="scanline" x1="0" y1="540" x2="800" y2="540"/>
    <line class="scanline" x1="0" y1="556" x2="800" y2="556"/>
    <line class="scanline" x1="0" y1="572" x2="800" y2="572"/>
    <line class="scanline" x1="0" y1="588" x2="800" y2="588"/>
    <line class="scanline" x1="0" y1="604" x2="800" y2="604"/>
    <line class="scanline" x1="0" y1="620" x2="800" y2="620"/>
    <line class="scanline" x1="0" y1="636" x2="800" y2="636"/>
    <line class="scanline" x1="0" y1="652" x2="800" y2="652"/>
    <line class="scanline" x1="0" y1="668" x2="800" y2="668"/>
    <line class="scanline" x1="0" y1="684" x2="800" y2="684"/>
    <line class="scanline" x1="0" y1="700" x2="800" y2="700"/>
    <line class="scanline" x1="0" y1="716" x2="800" y2="716"/>
    <line class="scanline" x1="0" y1="732" x2="800" y2="732"/>
    <line class="scanline" x1="0" y1="748" x2="800" y2="748"/>
    <line class="scanline" x1="0" y1="764" x2="800" y2="764"/>
    <line class="scanline" x1="0" y1="780" x2="800" y2="780"/>
    <line class="scanline" x1="0" y1="796" x2="800" y2="796"/>
    <line class="scanline" x1="0" y1="812" x2="800" y2="812"/>
    <line class="scanline" x1="0" y1="828" x2="800" y2="828"/>
    <line class="scanline" x1="0" y1="844" x2="800" y2="844"/>
    <line class="scanline" x1="0" y1="860" x2="800" y2="860"/>
    <line class="scanline" x1="0" y1="876" x2="800" y2="876"/>
    <line class="scanline" x1="0" y1="892" x2="800" y2="892"/>
    <line class="scanline" x1="0" y1="908" x2="800" y2="908"/>
    <line class="scanline" x1="0" y1="924" x2="800" y2="924"/>
    <line class="scanline" x1="0" y1="940" x2="800" y2="940"/>
    <line class="scanline" x1="0" y1="956" x2="800" y2="956"/>
    <line class="scanline" x1="0" y1="972" x2="800" y2="972"/>
    <line class="scanline" x1="0" y1="988" x2="800" y2="988"/>
    <line class="scanline" x1="0" y1="1004" x2="800" y2="1004"/>
    <line class="scanline" x1="0" y1="1020" x2="800" y2="1020"/>
    <line class="scanline" x1="0" y1="1036" x2="800" y2="1036"/>
    <line class="scanline" x1="0" y1="1052" x2="800" y2="1052"/>
    <line class="scanline" x1="0" y1="1068" x2="800" y2="1068"/>
    <line class="scanline" x1="0" y1="1084" x2="800" y2="1084"/>
    <line class="scanline" x1="0" y1="1100" x2="800" y2="1100"/>
    <line class="scanline" x1="0" y1="1116" x2="800" y2="1116"/>
    <line class="scanline" x1="0" y1="1132" x2="800" y2="1132"/>
    <line class="scanline" x1="0" y1="1148" x2="800" y2="1148"/>
    <line class="scanline" x1="0" y1="1164" x2="800" y2="1164"/>
    <line class="scanline" x1="0" y1="1180" x2="800" y2="1180"/>
    <line class="scanline" x1="0" y1="1196" x2="800" y2="1196"/>
    <line class="scanline" x1="0" y1="1212" x2="800" y2="1212"/>
    <line class="scanline" x1="0" y1="1228" x2="800" y2="1228"/>
    <line class="scanline" x1="0" y1="1244" x2="800" y2="1244"/>
    <line class="scanline" x1="0" y1="1260" x2="800" y2="1260"/>
  </g>

  <rect class="bar-bg" x="0" y="0" width="800" height="34" rx="12"/>
  <rect class="bar-bg" x="0" y="22" width="800" height="12"/>
  <circle class="dot-r" cx="20" cy="17" r="5.5"/>
  <circle class="dot-y" cx="40" cy="17" r="5.5"/>
  <circle class="dot-g" cx="60" cy="17" r="5.5"/>
  <text class="bt" x="400" y="21" text-anchor="middle">ervin@github — bash — 120×80</text>
  <rect class="border" x="0.5" y="0.5" width="799" height="1269" rx="12"/>


  <!-- ══════════════════════════════════════════════ -->
  <!-- SECTION 1: /proc/ervin                         -->
  <!-- ══════════════════════════════════════════════ -->

  <g class="s0">
    <text class="t" x="28" y="62">
      <tspan class="c-blue">ervin@github</tspan><tspan class="c-sub2">:</tspan><tspan class="c-yel">~</tspan><tspan class="c-sub2">$ </tspan><tspan class="c-lav">cat /proc/ervin</tspan>
    </text>
  </g>

  <g class="s1">
    <text class="t" x="28" y="84"><tspan class="c-sub2">name     </tspan><tspan class="c-mauve">Ervin Lanada</tspan></text>
    <text class="t" x="28" y="102"><tspan class="c-sub2">role     </tspan><tspan class="c-text">Software Engineer at AWS</tspan></text>

    <text class="t" x="28" y="128"><tspan class="c-sub2">interests</tspan></text>

    <rect x="28"  y="136" width="60"  height="20" rx="10" fill="#fab38718" stroke="#fab38755" stroke-width="1"/>
    <text class="pill c-peach" x="58"  y="150" text-anchor="middle">rust</text>
    <rect x="96"  y="136" width="40"  height="20" rx="10" fill="#fab38718" stroke="#fab38755" stroke-width="1"/>
    <text class="pill c-peach" x="116" y="150" text-anchor="middle">c++</text>
    <rect x="144" y="136" width="148" height="20" rx="10" fill="#94e2d518" stroke="#94e2d555" stroke-width="1"/>
    <text class="pill c-teal"  x="218" y="150" text-anchor="middle">distributed systems</text>
    <rect x="300" y="136" width="132" height="20" rx="10" fill="#94e2d518" stroke="#94e2d555" stroke-width="1"/>
    <text class="pill c-teal"  x="366" y="150" text-anchor="middle">operating systems</text>
    <rect x="440" y="136" width="90"  height="20" rx="10" fill="#94e2d518" stroke="#94e2d555" stroke-width="1"/>
    <text class="pill c-teal"  x="485" y="150" text-anchor="middle">networking</text>
    <rect x="538" y="136" width="90"  height="20" rx="10" fill="#cba6f718" stroke="#cba6f755" stroke-width="1"/>
    <text class="pill c-mauve" x="583" y="150" text-anchor="middle">compilers</text>
    <rect x="636" y="136" width="108" height="20" rx="10" fill="#89b4fa18" stroke="#89b4fa55" stroke-width="1"/>
    <text class="pill c-blue"  x="690" y="150" text-anchor="middle">backend infra</text>

    <text class="t" x="28" y="182"><tspan class="c-sub2">status</tspan></text>
    <circle cx="40"  cy="196" r="4" fill="#a6e3a1"/>
    <text class="t c-text" x="52" y="200">building low-level projects in Rust</text>
    <circle cx="40"  cy="214" r="4" fill="#a6e3a1"/>
    <text class="t c-text" x="52" y="218">grinding Codeforces in C++</text>
    <circle cx="40"  cy="232" r="4" fill="#89b4fa"/>
    <text class="t c-text" x="52" y="236">open to open source collaboration</text>
  </g>

  <line class="div" x1="28" y1="256" x2="772" y2="256"/>


  <!-- ══════════════════════════════════════════════ -->
  <!-- SECTION 2: education                           -->
  <!-- ══════════════════════════════════════════════ -->

  <g class="s2">
    <text class="t" x="28" y="280">
      <tspan class="c-blue">ervin@github</tspan><tspan class="c-sub2">:</tspan><tspan class="c-yel">~</tspan><tspan class="c-sub2">$ </tspan><tspan class="c-lav">cat education.log</tspan>
    </text>
  </g>

  <g class="s3">
    <!-- UAlberta card -->
    <rect x="28" y="294" width="744" height="72" rx="8" fill="#181825" stroke="#313244" stroke-width="1"/>
    <rect x="28" y="294" width="4"   height="72" rx="2" fill="#89b4fa"/>
    <text class="t c-blue"  x="46" y="316">University of Alberta</text>
    <text class="ts c-text" x="46" y="334">BSc Computer Science — Software Practice Specialization</text>
    <text class="ts c-sub2" x="46" y="352">2021 – 2026</text>
    <rect x="640" y="304" width="116" height="20" rx="10" fill="#89b4fa18" stroke="#89b4fa55" stroke-width="1"/>
    <text class="pill c-blue" x="698" y="318" text-anchor="middle">undergraduate</text>

    <!-- Georgia Tech card -->
    <rect x="28" y="378" width="744" height="72" rx="8" fill="#181825" stroke="#313244" stroke-width="1"/>
    <rect x="28" y="378" width="4"   height="72" rx="2" fill="#a6e3a1"/>
    <text class="t c-grn"   x="46" y="400">Georgia Institute of Technology</text>
    <text class="ts c-text" x="46" y="418">MSc Computer Science — Computing Systems Specialization</text>
    <text class="ts c-sub2" x="46" y="436">2026 – Present</text>
    <rect x="640" y="388" width="116" height="20" rx="10" fill="#a6e3a118" stroke="#a6e3a155" stroke-width="1"/>
    <text class="pill c-grn" x="698" y="402" text-anchor="middle">postgraduate</text>
  </g>

  <line class="div" x1="28" y1="466" x2="772" y2="466"/>


  <!-- ══════════════════════════════════════════════ -->
  <!-- SECTION 3: grind.log                           -->
  <!-- ══════════════════════════════════════════════ -->

  <g class="s4">
    <text class="t" x="28" y="490">
      <tspan class="c-blue">ervin@github</tspan><tspan class="c-sub2">:</tspan><tspan class="c-yel">~</tspan><tspan class="c-sub2">$ </tspan><tspan class="c-lav">cat grind.log</tspan>
    </text>
  </g>

  <g class="s5">
    <text class="ts c-sub" x="28" y="512">[competitive-programming]</text>
    <text class="t" x="44" y="530"><tspan class="c-peach">&gt; </tspan><tspan class="c-text">solving Codeforces problems in C++</tspan></text>
    <text class="t" x="44" y="548"><tspan class="c-peach">&gt; </tspan><tspan class="c-text">focusing on speed, patterns, and STL fluency</tspan></text>

    <text class="ts c-sub" x="28" y="572">[systems-projects]</text>
    <text class="t" x="44" y="590"><tspan class="c-teal">&gt; </tspan><tspan class="c-text">building systems-oriented tools in Rust</tspan></text>
    <text class="t" x="44" y="608"><tspan class="c-teal">&gt; </tspan><tspan class="c-text">exploring performance and low-level design</tspan></text>

    <text class="ts c-sub" x="28" y="632">[deep-study]</text>
    <text class="t" x="44" y="650"><tspan class="c-mauve" xml:space="preserve">operating systems    </tspan><tspan class="c-sub2">processes, memory, scheduling</tspan></text>
    <text class="t" x="44" y="668"><tspan class="c-mauve" xml:space="preserve">distributed systems  </tspan><tspan class="c-sub2">scalability, fault tolerance</tspan></text>
    <text class="t" x="44" y="686"><tspan class="c-mauve" xml:space="preserve">networking           </tspan><tspan class="c-sub2">protocols, data flow</tspan></text>
    <text class="t" x="44" y="704"><tspan class="c-mauve" xml:space="preserve">compilers            </tspan><tspan class="c-sub2">parsing, ASTs, execution models</tspan></text>
  </g>

  <line class="div" x1="28" y1="724" x2="772" y2="724"/>


  <!-- ══════════════════════════════════════════════ -->
  <!-- SECTION 4: stack                               -->
  <!-- ══════════════════════════════════════════════ -->

  <g class="s6">
    <text class="t" x="28" y="748">
      <tspan class="c-blue">ervin@github</tspan><tspan class="c-sub2">:</tspan><tspan class="c-yel">~</tspan><tspan class="c-sub2">$ </tspan><tspan class="c-lav">stack --show</tspan>
    </text>
  </g>

  <g class="s7">
    <text class="ts c-sub2" x="28" y="772">languages</text>
    <rect x="120" y="756" width="60"  height="20" rx="10" fill="#fab38718" stroke="#fab38755" stroke-width="1"/>
    <text class="pill c-peach" x="150" y="770" text-anchor="middle">Rust</text>
    <rect x="188" y="756" width="40"  height="20" rx="10" fill="#fab38718" stroke="#fab38755" stroke-width="1"/>
    <text class="pill c-peach" x="208" y="770" text-anchor="middle">C++</text>
    <rect x="236" y="756" width="28"  height="20" rx="10" fill="#fab38718" stroke="#fab38755" stroke-width="1"/>
    <text class="pill c-peach" x="250" y="770" text-anchor="middle">C</text>
    <rect x="272" y="756" width="100" height="20" rx="10" fill="#89b4fa18" stroke="#89b4fa55" stroke-width="1"/>
    <text class="pill c-blue"  x="322" y="770" text-anchor="middle">TypeScript</text>
    <rect x="380" y="756" width="68"  height="20" rx="10" fill="#89b4fa18" stroke="#89b4fa55" stroke-width="1"/>
    <text class="pill c-blue"  x="414" y="770" text-anchor="middle">Python</text>
    <rect x="456" y="756" width="48"  height="20" rx="10" fill="#89b4fa18" stroke="#89b4fa55" stroke-width="1"/>
    <text class="pill c-blue"  x="480" y="770" text-anchor="middle">Java</text>

    <text class="ts c-sub2" x="28" y="806">systems</text>
    <rect x="120" y="790" width="56"  height="20" rx="10" fill="#94e2d518" stroke="#94e2d555" stroke-width="1"/>
    <text class="pill c-teal"  x="148" y="804" text-anchor="middle">Linux</text>
    <rect x="184" y="790" width="100" height="20" rx="10" fill="#94e2d518" stroke="#94e2d555" stroke-width="1"/>
    <text class="pill c-teal"  x="234" y="804" text-anchor="middle">Networking</text>
    <rect x="292" y="790" width="148" height="20" rx="10" fill="#94e2d518" stroke="#94e2d555" stroke-width="1"/>
    <text class="pill c-teal"  x="366" y="804" text-anchor="middle">Distributed Systems</text>
    <rect x="448" y="790" width="60"  height="20" rx="10" fill="#94e2d518" stroke="#94e2d555" stroke-width="1"/>
    <text class="pill c-teal"  x="478" y="804" text-anchor="middle">Docker</text>
    <rect x="516" y="790" width="44"  height="20" rx="10" fill="#94e2d518" stroke="#94e2d555" stroke-width="1"/>
    <text class="pill c-teal"  x="538" y="804" text-anchor="middle">AWS</text>

    <text class="ts c-sub2" x="28" y="840">tools</text>
    <rect x="120" y="824" width="40"  height="20" rx="10" fill="#a6e3a118" stroke="#a6e3a155" stroke-width="1"/>
    <text class="pill c-grn"   x="140" y="838" text-anchor="middle">Git</text>
    <rect x="168" y="824" width="52"  height="20" rx="10" fill="#a6e3a118" stroke="#a6e3a155" stroke-width="1"/>
    <text class="pill c-grn"   x="194" y="838" text-anchor="middle">CI/CD</text>
  </g>

  <line class="div" x1="28" y1="862" x2="772" y2="862"/>


  <!-- ══════════════════════════════════════════════ -->
  <!-- SECTION 5: roadmap — card layout               -->
  <!-- ══════════════════════════════════════════════ -->

  <g class="s8">
    <text class="t" x="28" y="886">
      <tspan class="c-blue">ervin@github</tspan><tspan class="c-sub2">:</tspan><tspan class="c-yel">~</tspan><tspan class="c-sub2">$ </tspan><tspan class="c-lav">cat roadmap.txt</tspan>
    </text>
  </g>

  <g class="s9">
    <!-- card 1 -->
    <rect x="28"  y="900" width="356" height="62" rx="8" fill="#181825" stroke="#313244" stroke-width="1"/>
    <rect x="28"  y="900" width="4"   height="62" rx="2" fill="#fab387"/>
    <text class="ts c-sub2" x="46" y="918">01</text>
    <text class="t  c-text" x="46" y="936">systems-level CLI tools in Rust</text>

    <!-- card 2 -->
    <rect x="416" y="900" width="356" height="62" rx="8" fill="#181825" stroke="#313244" stroke-width="1"/>
    <rect x="416" y="900" width="4"   height="62" rx="2" fill="#94e2d5"/>
    <text class="ts c-sub2" x="434" y="918">02</text>
    <text class="t  c-text" x="434" y="936">distributed systems projects in C++</text>

    <!-- card 3 -->
    <rect x="28"  y="974" width="356" height="62" rx="8" fill="#181825" stroke="#313244" stroke-width="1"/>
    <rect x="28"  y="974" width="4"   height="62" rx="2" fill="#cba6f7"/>
    <text class="ts c-sub2" x="46" y="992">03</text>
    <text class="t  c-text" x="46" y="1010">deeper Rust infrastructure work</text>

    <!-- card 4 -->
    <rect x="416" y="974" width="356" height="62" rx="8" fill="#181825" stroke="#313244" stroke-width="1"/>
    <rect x="416" y="974" width="4"   height="62" rx="2" fill="#a6e3a1"/>
    <text class="ts c-sub2" x="434" y="992">04</text>
    <text class="t  c-text" x="434" y="1010">competitive programming growth</text>

    <!-- card 5 -->
    <rect x="28"  y="1048" width="356" height="62" rx="8" fill="#181825" stroke="#313244" stroke-width="1"/>
    <rect x="28"  y="1048" width="4"   height="62" rx="2" fill="#89b4fa"/>
    <text class="ts c-sub2" x="46" y="1066">05</text>
    <text class="t  c-text" x="46" y="1084">open source contributions</text>
  </g>

  <line class="div" x1="28" y1="1128" x2="772" y2="1128"/>


  <!-- ══════════════════════════════════════════════ -->
  <!-- SECTION 6: contact                             -->
  <!-- ══════════════════════════════════════════════ -->

  <g class="s10">
    <text class="t" x="28" y="1152">
      <tspan class="c-blue">ervin@github</tspan><tspan class="c-sub2">:</tspan><tspan class="c-yel">~</tspan><tspan class="c-sub2">$ </tspan><tspan class="c-lav">contact</tspan>
    </text>
  </g>

  <g class="s11">
    <text class="t" x="28" y="1176"><tspan class="c-sub2">@   </tspan><tspan class="c-blue">ervinjon_lanada@outlook.com</tspan></text>
    <text class="t" x="28" y="1194"><tspan class="c-sub2">in  </tspan><tspan class="c-blue">linkedin.com/in/ej-lanada</tspan></text>
  </g>

  <line class="div" x1="28" y1="1216" x2="772" y2="1216"/>


  <!-- ══════════════════════════════════════════════ -->
  <!-- Final prompt + typing animation                -->
  <!-- ══════════════════════════════════════════════ -->

  <!-- "ervin@github:~$ " = 18 chars × 7.55px ≈ 136px → text starts x=164  -->
  <!-- "currently compiling... please wait" = 34 chars × 7.55px ≈ 257px     -->
  <!-- cursor: start x=164, end x=421                                        -->
  <!-- timing: type 6s, hold 2s, erase 1s, hold 1s = 10s loop               -->

  <defs>
    <clipPath id="type-clip">
      <rect x="148" y="1232" width="0" height="22">
        <animate
          attributeName="width"
          values="0;257;257;0;0"
          keyTimes="0;0.6;0.8;0.9;1"
          dur="10s"
          begin="5.6s"
          repeatCount="indefinite"
          calcMode="linear"
        />
      </rect>
    </clipPath>
  </defs>

  <g class="s12">
    <text class="t" x="28" y="1246">
      <tspan class="c-blue">ervin@github</tspan><tspan class="c-sub2">:</tspan><tspan class="c-yel">~</tspan><tspan class="c-sub2">$ </tspan>
    </text>
    <text class="t c-lav" x="148" y="1246" clip-path="url(#type-clip)">currently compiling... please wait</text>
  </g>

  <!-- ervin@github:~$  = 16 chars × 7.51px = 120px → text x=148, cursor start=148, end=148+255=403 -->
  <rect fill="#b4befe" x="148" y="1233" width="8" height="15">
    <animate
      attributeName="x"
      values="148;403;403;148;148"
      keyTimes="0;0.6;0.8;0.9;1"
      dur="10s"
      begin="5.6s"
      repeatCount="indefinite"
      calcMode="linear"
    />
    <animate
      attributeName="opacity"
      values="1;1;0;1;0;1"
      keyTimes="0;0.6;0.7;0.8;0.9;1"
      dur="10s"
      begin="5.6s"
      repeatCount="indefinite"
    />
  </rect>

</svg>
